<svg id="visual" viewBox="0 0 900 600" width="900" height="600" xmlns="http://www.w3.org/2000/svg" xmlns:xlink="http://www.w3.org/1999/xlink" version="1.1"><g stroke-width="1" stroke-linejoin="bevel"><path d="M456 294L555.5 213L456 198Z" fill="#19435d" stroke="#19435d"></path><path d="M456 294L565.5 286L555.5 213Z" fill="#297ea6" stroke="#297ea6"></path><path d="M456 198L349.5 209L456 294Z" fill="#246688" stroke="#246688"></path><path d="M558.5 98L461 96L456 198Z" fill="#297ea6" stroke="#297ea6"></path><path d="M456 198L342.5 110L349.5 209Z" fill="#1d4e6b" stroke="#1d4e6b"></path><path d="M677 115L558.5 98L555.5 213Z" fill="#0c2435" stroke="#0c2435"></path><path d="M555.5 213L558.5 98L456 198Z" fill="#00101c" stroke="#00101c"></path><path d="M329.5 311L465 407L456 294Z" fill="#205a7a" stroke="#205a7a"></path><path d="M456 294L465 407L565.5 286Z" fill="#205a7a" stroke="#205a7a"></path><path d="M569.5 412L664 307L565.5 286Z" fill="#205a7a" stroke="#205a7a"></path><path d="M565.5 286L688 212L555.5 213Z" fill="#0c2435" stroke="#0c2435"></path><path d="M465 407L569.5 412L565.5 286Z" fill="#297ea6" stroke="#297ea6"></path><path d="M349.5 209L329.5 311L456 294Z" fill="#081a28" stroke="#081a28"></path><path d="M664 307L688 212L565.5 286Z" fill="#205a7a" stroke="#205a7a"></path><path d="M461 96L342.5 110L456 198Z" fill="#1d4e6b" stroke="#1d4e6b"></path><path d="M349.5 209L240 205L329.5 311Z" fill="#246688" stroke="#246688"></path><path d="M688 212L677 115L555.5 213Z" fill="#112e42" stroke="#112e42"></path><path d="M329.5 311L326.5 407L465 407Z" fill="#0c2435" stroke="#0c2435"></path><path d="M465 407L566.5 501L569.5 412Z" fill="#205a7a" stroke="#205a7a"></path><path d="M569.5 412L677 404L664 307Z" fill="#19435d" stroke="#19435d"></path><path d="M780.5 309L775.5 210L688 212Z" fill="#0c2435" stroke="#0c2435"></path><path d="M670 0L550.5 0L558.5 98Z" fill="#246688" stroke="#246688"></path><path d="M558.5 98L550.5 0L461 96Z" fill="#081a28" stroke="#081a28"></path><path d="M461 96L441 0L342.5 110Z" fill="#205a7a" stroke="#205a7a"></path><path d="M550.5 0L441 0L461 96Z" fill="#297ea6" stroke="#297ea6"></path><path d="M326.5 407L450 498L465 407Z" fill="#00101c" stroke="#00101c"></path><path d="M569.5 412L674 488L677 404Z" fill="#0c2435" stroke="#0c2435"></path><path d="M240 115L240 205L342.5 110Z" fill="#081a28" stroke="#081a28"></path><path d="M342.5 110L240 205L349.5 209Z" fill="#081a28" stroke="#081a28"></path><path d="M329.5 311L215 384L326.5 407Z" fill="#205a7a" stroke="#205a7a"></path><path d="M450 498L566.5 501L465 407Z" fill="#081a28" stroke="#081a28"></path><path d="M688 212L775.5 210L677 115Z" fill="#19435d" stroke="#19435d"></path><path d="M780.5 309L688 212L664 307Z" fill="#277297" stroke="#277297"></path><path d="M441 0L350.5 0L342.5 110Z" fill="#19435d" stroke="#19435d"></path><path d="M677 404L780.5 309L664 307Z" fill="#297ea6" stroke="#297ea6"></path><path d="M235 0L240 115L342.5 110Z" fill="#00101c" stroke="#00101c"></path><path d="M240 205L213 297L329.5 311Z" fill="#246688" stroke="#246688"></path><path d="M116.5 189L213 297L240 205Z" fill="#246688" stroke="#246688"></path><path d="M566.5 501L674 488L569.5 412Z" fill="#19435d" stroke="#19435d"></path><path d="M677 404L796.5 397L780.5 309Z" fill="#00101c" stroke="#00101c"></path><path d="M677 115L670 0L558.5 98Z" fill="#1d4e6b" stroke="#1d4e6b"></path><path d="M771.5 89L670 0L677 115Z" fill="#081a28" stroke="#081a28"></path><path d="M796.5 0L771.5 89L900 86Z" fill="#297ea6" stroke="#297ea6"></path><path d="M775.5 210L771.5 89L677 115Z" fill="#00101c" stroke="#00101c"></path><path d="M213 297L215 384L329.5 311Z" fill="#246688" stroke="#246688"></path><path d="M326.5 407L325.5 515L450 498Z" fill="#19435d" stroke="#19435d"></path><path d="M212 501L325.5 515L326.5 407Z" fill="#1d4e6b" stroke="#1d4e6b"></path><path d="M450 498L552.5 600L566.5 501Z" fill="#246688" stroke="#246688"></path><path d="M792.5 492L796.5 397L677 404Z" fill="#15384f" stroke="#15384f"></path><path d="M780.5 309L900 288L775.5 210Z" fill="#205a7a" stroke="#205a7a"></path><path d="M566.5 501L687 600L674 488Z" fill="#297ea6" stroke="#297ea6"></path><path d="M674 488L792.5 492L677 404Z" fill="#112e42" stroke="#112e42"></path><path d="M446 600L552.5 600L450 498Z" fill="#205a7a" stroke="#205a7a"></path><path d="M325.5 515L446 600L450 498Z" fill="#19435d" stroke="#19435d"></path><path d="M350.5 0L235 0L342.5 110Z" fill="#00101c" stroke="#00101c"></path><path d="M240 115L116.5 189L240 205Z" fill="#00101c" stroke="#00101c"></path><path d="M687 600L792.5 492L674 488Z" fill="#00101c" stroke="#00101c"></path><path d="M113.5 412L212 501L215 384Z" fill="#00101c" stroke="#00101c"></path><path d="M215 384L212 501L326.5 407Z" fill="#297ea6" stroke="#297ea6"></path><path d="M325.5 515L333.5 600L446 600Z" fill="#15384f" stroke="#15384f"></path><path d="M900 189L771.5 89L775.5 210Z" fill="#19435d" stroke="#19435d"></path><path d="M771.5 89L796.5 0L670 0Z" fill="#15384f" stroke="#15384f"></path><path d="M124.5 109L116.5 189L240 115Z" fill="#112e42" stroke="#112e42"></path><path d="M213 297L107.5 296L215 384Z" fill="#112e42" stroke="#112e42"></path><path d="M225 600L333.5 600L325.5 515Z" fill="#246688" stroke="#246688"></path><path d="M116.5 189L107.5 296L213 297Z" fill="#00101c" stroke="#00101c"></path><path d="M235 0L124.5 109L240 115Z" fill="#081a28" stroke="#081a28"></path><path d="M552.5 600L687 600L566.5 501Z" fill="#19435d" stroke="#19435d"></path><path d="M900 411L900 288L796.5 397Z" fill="#19435d" stroke="#19435d"></path><path d="M796.5 397L900 288L780.5 309Z" fill="#277297" stroke="#277297"></path><path d="M900 288L900 189L775.5 210Z" fill="#112e42" stroke="#112e42"></path><path d="M107.5 296L113.5 412L215 384Z" fill="#081a28" stroke="#081a28"></path><path d="M900 189L900 86L771.5 89Z" fill="#246688" stroke="#246688"></path><path d="M792.5 492L900 411L796.5 397Z" fill="#1d4e6b" stroke="#1d4e6b"></path><path d="M900 497L900 411L792.5 492Z" fill="#277297" stroke="#277297"></path><path d="M212 501L225 600L325.5 515Z" fill="#246688" stroke="#246688"></path><path d="M123.5 600L225 600L212 501Z" fill="#0c2435" stroke="#0c2435"></path><path d="M687 600L786.5 600L792.5 492Z" fill="#0c2435" stroke="#0c2435"></path><path d="M235 0L106.5 0L124.5 109Z" fill="#277297" stroke="#277297"></path><path d="M0 97L0 209L116.5 189Z" fill="#00101c" stroke="#00101c"></path><path d="M116.5 189L0 209L107.5 296Z" fill="#205a7a" stroke="#205a7a"></path><path d="M900 86L900 0L796.5 0Z" fill="#081a28" stroke="#081a28"></path><path d="M900 600L900 497L792.5 492Z" fill="#19435d" stroke="#19435d"></path><path d="M0 407L101.5 515L113.5 412Z" fill="#297ea6" stroke="#297ea6"></path><path d="M113.5 412L101.5 515L212 501Z" fill="#0c2435" stroke="#0c2435"></path><path d="M0 407L113.5 412L107.5 296Z" fill="#297ea6" stroke="#297ea6"></path><path d="M0 97L116.5 189L124.5 109Z" fill="#277297" stroke="#277297"></path><path d="M0 209L0 306L107.5 296Z" fill="#277297" stroke="#277297"></path><path d="M0 600L123.5 600L101.5 515Z" fill="#112e42" stroke="#112e42"></path><path d="M101.5 515L123.5 600L212 501Z" fill="#277297" stroke="#277297"></path><path d="M106.5 0L0 97L124.5 109Z" fill="#00101c" stroke="#00101c"></path><path d="M0 306L0 407L107.5 296Z" fill="#297ea6" stroke="#297ea6"></path><path d="M786.5 600L900 600L792.5 492Z" fill="#0c2435" stroke="#0c2435"></path><path d="M106.5 0L0 0L0 97Z" fill="#112e42" stroke="#112e42"></path><path d="M0 407L0 508L101.5 515Z" fill="#277297" stroke="#277297"></path><path d="M0 508L0 600L101.5 515Z" fill="#1d4e6b" stroke="#1d4e6b"></path></g></svg>